<?xml version="1.0" encoding="utf-8"?>
<!-- Generator: Adobe Illustrator 24.0.0, SVG Export Plug-In . SVG Version: 6.00 Build 0)  -->
<svg version="1.1" id="Слой_1" xmlns="http://www.w3.org/2000/svg" xmlns:xlink="http://www.w3.org/1999/xlink" x="0px" y="0px"
	 viewBox="0 0 40 39" style="enable-background:new 0 0 40 39;" xml:space="preserve">
<path d="M39.6,14.4L20.3,0.2c-0.3-0.2-0.8-0.2-1.1,0L0.3,14.4C0.1,14.6,0,14.8,0,15.1v23C0,38.6,0.4,39,0.9,39h14.4l0.1-1.7V24.4
	c0-0.5,0.4-0.9,0.9-0.9h7c0.5,0,0.9,0.4,0.9,0.9v12.9l0.1,1.7h14.8c0.5,0,0.9-0.4,0.9-0.9v-23C40,14.8,39.9,14.6,39.6,14.4z"/>
</svg>
