<?xml version="1.0" encoding="utf-8"?>
<!-- Generator: Adobe Illustrator 24.0.0, SVG Export Plug-In . SVG Version: 6.00 Build 0)  -->
<svg version="1.1" id="Слой_1" xmlns="http://www.w3.org/2000/svg" xmlns:xlink="http://www.w3.org/1999/xlink" x="0px" y="0px"
	 viewBox="0 0 16 15.5" style="enable-background:new 0 0 16 15.5;" xml:space="preserve">
<style type="text/css">
	.st0{fill-rule:evenodd;clip-rule:evenodd;}
</style>
<path class="st0" d="M7.9,0c0.7,0,1.2,0.5,1.2,1.1v4.1c0,0.6-0.5,1.1-1.2,1.1S6.7,5.9,6.7,5.2V1.1C6.7,0.5,7.2,0,7.9,0z"/>
<path class="st0" d="M15.9,6c0.2,0.5-0.1,1.1-0.7,1.3l-3.6,1.2c-0.5,0.2-1.1-0.1-1.3-0.7c-0.2-0.5,0.1-1.1,0.7-1.3l3.6-1.2
	C15.2,5.1,15.8,5.4,15.9,6z"/>
<path class="st0" d="M12.9,15.3c-0.5,0.3-1.1,0.2-1.5-0.2L9.2,12c-0.3-0.5-0.2-1.1,0.2-1.5c0.5-0.3,1.1-0.2,1.5,0.2l2.2,3.1
	C13.5,14.3,13.4,15,12.9,15.3z"/>
<path class="st0" d="M3.1,15.3c-0.5-0.3-0.6-1-0.2-1.5l2.2-3.1c0.3-0.5,1-0.6,1.5-0.2c0.5,0.3,0.6,1,0.2,1.5l-2.2,3.1
	C4.2,15.5,3.6,15.7,3.1,15.3z"/>
<path class="st0" d="M0.1,6c0.2-0.5,0.8-0.8,1.3-0.7L5,6.5c0.5,0.2,0.8,0.8,0.7,1.3C5.5,8.3,4.9,8.6,4.3,8.5L0.7,7.3
	C0.2,7.1-0.1,6.5,0.1,6z"/>
</svg>
