<?xml version="1.0" encoding="utf-8"?>
<!-- Generator: Adobe Illustrator 24.0.0, SVG Export Plug-In . SVG Version: 6.00 Build 0)  -->
<svg version="1.1" id="Слой_1" xmlns="http://www.w3.org/2000/svg" xmlns:xlink="http://www.w3.org/1999/xlink" x="0px" y="0px"
	 viewBox="0 0 18 16" style="enable-background:new 0 0 18 16;" xml:space="preserve">
<style type="text/css">
	.st0{fill-rule:evenodd;clip-rule:evenodd;}
</style>
<path class="st0" d="M1,8c0-4.4,3.8-8,8.5-8C14.2,0,18,3.6,18,8s-3.8,8-8.5,8c-0.9,0-1.8-0.1-2.6-0.4c0.6-3.3,2.8-6,5.8-7.2
	c0.4,0.4,0.9,0.6,1.5,0.6c1,0,1.9-0.8,1.9-1.8s-0.8-1.8-1.9-1.8s-1.9,0.8-1.9,1.8c-3.7,1.1-6.7,3.5-8.3,6.6
	c-0.5-0.4-0.9-0.8-1.3-1.4c0.1-3.1,1.7-5.8,4.1-7.3c0.4,0.4,0.9,0.6,1.4,0.6c1,0,1.9-0.8,1.9-1.8S9.1,2.2,8.1,2.2
	C7.1,2.2,6.2,3,6.2,4c0,0,0,0.1,0,0.1C4,4.8,2.1,6.3,1.1,8.2C1,8.2,1,8.1,1,8z"/>
</svg>
