<?xml version="1.0" encoding="utf-8"?>
<!-- Generator: Adobe Illustrator 24.0.0, SVG Export Plug-In . SVG Version: 6.00 Build 0)  -->
<svg version="1.1" id="Слой_1" xmlns="http://www.w3.org/2000/svg" xmlns:xlink="http://www.w3.org/1999/xlink" x="0px" y="0px"
	 viewBox="0 0 60 62" style="enable-background:new 0 0 60 62;" xml:space="preserve">
<g>
	<path d="M58.2,42.2c1.3-1.6,1.9-3.4,1.8-5.1c-0.1-2-1-3.5-1.7-4.5c0.8-2.1,1.2-5.4-1.6-8c-2.1-1.9-5.5-2.7-10.4-2.5
		c-3.4,0.2-6.2,0.8-6.4,0.8h0c-0.6,0.1-1.3,0.3-2,0.4c-0.1-0.8,0.1-2.9,1.6-7.5c1.8-5.5,1.7-9.7-0.3-12.6c-2.1-3-5.6-3.2-6.6-3.2
		c-1,0-1.9,0.4-2.5,1.1c-1.4,1.7-1.3,4.8-1.1,6.2c-1.7,4.6-6.5,15.8-10.5,19c-0.1,0.1-0.1,0.1-0.2,0.2c-1.2,1.3-2,2.6-2.5,3.8
		c-0.8-0.4-1.6-0.6-2.6-0.6H5.4c-3,0-5.4,2.4-5.4,5.4v21.1c0,3,2.4,5.4,5.4,5.4h7.9c1.1,0,2.2-0.4,3.1-1l3,0.4
		c0.5,0.1,8.7,1.1,17.2,0.9c1.5,0.1,3,0.2,4.3,0.2c2.3,0,4.3-0.2,6-0.5c3.9-0.8,6.6-2.5,8-5c1-1.9,1-3.8,0.9-5
		c2.6-2.3,3-4.9,2.9-6.7C58.7,43.7,58.4,42.8,58.2,42.2z M5.4,58c-1,0-1.9-0.9-1.9-1.9V35c0-1.1,0.9-1.9,1.9-1.9h7.9
		c1,0,1.9,0.9,1.9,1.9v21.1c0,1.1-0.9,1.9-1.9,1.9L5.4,58L5.4,58L5.4,58z M54.9,40.6c-0.5,0.6-0.6,1.4-0.2,2.1c0,0,0.5,0.9,0.6,2.2
		c0.1,1.7-0.7,3.2-2.4,4.5c-0.6,0.5-0.9,1.3-0.6,2c0,0,0.6,1.7-0.3,3.3c-0.9,1.6-2.8,2.7-5.7,3.3c-2.3,0.5-5.5,0.6-9.4,0.3
		c-0.1,0-0.1,0-0.2,0c-8.3,0.2-16.7-0.9-16.8-0.9h0l-1.3-0.2c0.1-0.4,0.1-0.8,0.1-1.1V35c0-0.6-0.1-1.1-0.2-1.6
		c0.2-0.9,0.9-2.8,2.4-4.4c5.8-4.6,11.5-20.2,11.7-20.9c0.1-0.3,0.1-0.6,0.1-0.9c-0.2-1.5-0.1-3.2,0.2-3.8c0.7,0,2.5,0.2,3.6,1.8
		c1.3,1.8,1.3,5.1-0.2,9.4c-2.2,6.6-2.3,10.1-0.6,11.6c0.9,0.8,2,0.8,2.8,0.5c0.8-0.2,1.5-0.3,2.2-0.5c0.1,0,0.1,0,0.2,0
		c4-0.9,11.1-1.4,13.5,0.9c2.1,1.9,0.6,4.5,0.4,4.7c-0.5,0.7-0.3,1.7,0.3,2.3c0,0,1.4,1.3,1.4,3C56.6,38.3,56,39.5,54.9,40.6z"/>
</g>
</svg>
