<?xml version="1.0" encoding="utf-8"?>
<!-- Generator: Adobe Illustrator 24.0.0, SVG Export Plug-In . SVG Version: 6.00 Build 0)  -->
<svg version="1.1" id="Слой_1" xmlns="http://www.w3.org/2000/svg" xmlns:xlink="http://www.w3.org/1999/xlink" x="0px" y="0px"
	 viewBox="0 0 98.6 65.6" style="enable-background:new 0 0 98.6 65.6;" xml:space="preserve">
<path d="M64.7,65.6l-0.1-0.4L60,64.3l0.5-4.4l-6.2-4.5l3.2-2.8l-3.3-0.2v-3.1l-3.3-0.2l-6.1,8l-6.9,1.6l-7.6-0.7l8.1-12.3l2.4,0.2
	l-3.3-7.5l-6.1-3l-8.1,3.5l-6.6,1.4L0,33.1l4.7-5.4l-0.9-3.1l7.4-8.8l-1.1-3.7C9.3,9.7,8.6,7.2,8.5,6.8l-0.6-2l7.3-2l15,2.9L39.3,8
	l5.7,0l-0.1-1.4l3.6-4.4L65.6,0l1,9.1l4.8,0.3l3.3,6.7l8.7-0.3l2.4,3.2l1.9,0.2l10.8,4l-1.3,7.8l-2,9.1L93,40c-0.3,0-0.8,0-1.3-0.1
	c-0.5,0-0.9,0-1.3,0c-0.1,0-0.2,0-0.2,0c-0.2,0.1-0.5,0.2-0.8,0.3c-0.4,0.2-1,0.4-1.5,0.5c-0.2,0.1-0.4,0.1-0.6,0.2v3.1l-2,1l0,0
	l-1.5,0.8c-1.4,0.7-3.4,1.7-5.3,2.7c-2,1-3.9,1.9-5.5,2.7c-0.5,0.2-1,0.5-1.4,0.6c0.1,0.2,0.1,0.3,0.2,0.5c0.2,0.6,0.5,1.1,0.7,1.6
	c0.5,0,1.1,0,1.7,0c0.7,0,1.5-0.1,2-0.1l3.9-0.2l-0.6,1.9l0.1,0l-0.5,1l-0.3,0.9l0,0c-0.1,0.2-0.1,0.4-0.2,0.6
	c-0.2,0.4-0.3,0.8-0.5,1.2c-0.1,0.2-0.2,0.4-0.2,0.5c0,0.1-0.1,0.2-0.2,0.3c-0.1,0.1-0.2,0.3-0.5,0.6c-0.1,0.1-0.3,0.2-0.4,0.2
	l-0.2,0.1c-0.1,0-0.2,0.1-0.4,0.2c-0.3,0.1-0.8,0.3-1.3,0.5c-1.1,0.4-2.5,0.9-3.8,1.5c-1.4,0.5-2.7,1-3.8,1.4l-1.7,0.6L64.7,65.6z
	 M62.1,62.7l2.8,0.5l1.7-0.6c1-0.4,2.4-0.9,3.8-1.4c1.4-0.5,2.8-1.1,3.8-1.5c0.5-0.2,1-0.4,1.3-0.5c0.2-0.1,0.3-0.1,0.4-0.2L76,59
	c0.1-0.1,0.1-0.2,0.1-0.2c0.1-0.1,0.1-0.2,0.2-0.4c0.1-0.3,0.3-0.7,0.4-1.1c0.1-0.2,0.1-0.4,0.2-0.6l-0.6-0.2l0-0.7
	c-0.6,0-1.3,0.1-2,0.1c-0.8,0-1.5,0-2.1,0l-1,0l-0.5-1c-0.2-0.5-0.5-1.2-0.8-1.8c-0.3-0.6-0.4-1.1-0.6-1.5l-0.3-0.9l1.1-0.5
	c0.5-0.2,1.1-0.5,1.9-0.9c1.5-0.7,3.5-1.7,5.5-2.6c1.9-1,3.9-1.9,5.3-2.7l2.4-1.2v-3.3l0.7-0.2c0.3-0.1,0.8-0.3,1.2-0.4
	c0.5-0.2,1-0.4,1.4-0.5c0.3-0.1,0.6-0.2,0.8-0.3l0,0l0.3-0.1c0.2,0,0.4,0,0.6-0.1c0.4,0,0.9,0,1.4,0c0.5,0,1,0,1.3,0.1l0.6,0
	l1.6-7.4l1-6.1l-9.2-3.4L84.8,21l-2.3-3.1l-8.9,0.3l-3.4-6.8L64.9,11l-1-8.8L49.6,4.1L47,7.3l0.3,2.8L39,10l-9.2-2.3L15.3,4.9
	l-4.9,1.3c0.1,0.4,0.9,2.9,1.6,5.3l1.4,4.7L6,25.1l0.9,3.1l-3.6,4.1l13.8,5.9l6-1.3l8.5-3.8l7.6,3.7L44,48.1l-4.5-0.3l-5.7,8.5h0
	l3.9,0.3l5.9-1.3l6.3-8.3l6.3,0.5v3.1l6.2,0.5l-4.9,4.3l5.1,3.7L62.1,62.7z"/>
</svg>
