<?xml version="1.0" encoding="utf-8"?>
<!-- Generator: Adobe Illustrator 24.0.0, SVG Export Plug-In . SVG Version: 6.00 Build 0)  -->
<svg version="1.1" id="Слой_1" xmlns="http://www.w3.org/2000/svg" xmlns:xlink="http://www.w3.org/1999/xlink" x="0px" y="0px"
	 viewBox="0 0 55.5 55.4" style="enable-background:new 0 0 55.5 55.4;" xml:space="preserve">
<g>
	<path d="M42,55.4c-7.5,0-17.3-4.6-26.1-12.8l-3.1-3.1C1.8,27.6-2.7,14.2,1.7,6.8L2,6.2C2.1,6,2.3,5.8,2.5,5.6l0.7-1
		C4.5,3.1,6,1.8,7.8,1c1.8-0.8,3.8-1.1,5.7-1c1.1,0.1,2.1,0.5,2.9,1.3c0.5,0.5,0.8,1,1,1.7l0.8,2.5l3.2,9.4c0.3,0.7,0.3,1.5,0.2,2.3
		c-0.2,0.8-0.5,1.5-1,2.1l-2.8,3.2c0,0-0.1,0.1-0.1,0.1c0,0.1,0,0.1,0,0.2c3,6.6,8.3,11.9,14.9,14.9c0.1,0,0.1,0,0.2,0
		c0.1,0,0.1,0,0.1-0.1l3.2-2.8c0.6-0.5,1.3-0.9,2.1-1c0.8-0.2,1.6-0.1,2.3,0.2l12.3,4.2l0.1,0.1c0.4,0.2,0.9,0.5,1.2,0.9
		c0.8,0.8,1.2,1.8,1.3,2.9c0.1,1.9-0.2,3.9-1,5.7c-0.8,1.8-2,3.4-3.5,4.6l-1,0.8c-0.2,0.1-0.4,0.3-0.6,0.4l-0.5,0.3
		C46.9,54.9,44.6,55.4,42,55.4z M12.8,4c-1.2,0-2.3,0.2-3.4,0.7C8.2,5.2,7.2,6.1,6.3,7.1L5.6,8C5.5,8.2,5.4,8.3,5.4,8.4L5.1,8.8
		c-3.4,5.7,1.2,17.7,10.6,27.9l3,3c10.1,9.4,22.2,14,28,10.6l0.5-0.3c0.1,0,0.2-0.1,0.2-0.2l1-0.8c1-0.8,1.8-1.9,2.3-3.1
		c0.5-1.2,0.8-2.5,0.7-3.9c0-0.1,0-0.2-0.1-0.3c-0.1-0.1-0.1-0.1-0.2-0.1l-2.5-0.8l-9.4-3.2c-0.1,0-0.2,0-0.2,0
		c-0.1,0-0.1,0-0.2,0.1l-3.2,2.8c-0.6,0.5-1.4,0.9-2.2,1c-0.8,0.1-1.7,0-2.4-0.4c-7.4-3.4-13.4-9.4-16.8-16.8
		c-0.3-0.7-0.5-1.6-0.4-2.4c0.1-0.8,0.5-1.6,1-2.2l2.8-3.2c0.1-0.1,0.1-0.1,0.1-0.2c0-0.1,0-0.2,0-0.2L13.7,4.3c0,0,0-0.1-0.1-0.1
		C13.5,4.1,13.4,4,13.3,4C13.2,4,13,4,12.8,4z"/>
</g>
</svg>
