<?xml version="1.0" encoding="utf-8"?>
<!-- Generator: Adobe Illustrator 24.0.0, SVG Export Plug-In . SVG Version: 6.00 Build 0)  -->
<svg version="1.1" id="Слой_1" xmlns="http://www.w3.org/2000/svg" xmlns:xlink="http://www.w3.org/1999/xlink" x="0px" y="0px"
	 viewBox="0 0 14 14" style="enable-background:new 0 0 14 14;" xml:space="preserve">
<path d="M4,0.6C3.8,0.2,3.4-0.1,3,0C2.2,0.2,1.1,0.5,0.6,0.9c-1,1-1,5.2,3.1,9.4c4.2,4.2,8.3,4.2,9.4,3.1c0.5-0.5,0.8-1.6,0.9-2.4
	c0.1-0.4-0.2-0.9-0.6-1l-3.2-1.3c-0.2-0.1-0.6-0.1-0.8,0C8.6,9,8.6,11,5.8,8.2C3,5.4,5,5.4,5.3,4.6c0.1-0.2,0.1-0.6,0-0.8L4,0.6z"/>
</svg>
