<?xml version="1.0" encoding="utf-8"?>
<!-- Generator: Adobe Illustrator 24.0.0, SVG Export Plug-In . SVG Version: 6.00 Build 0)  -->
<svg version="1.1" id="Слой_1" xmlns="http://www.w3.org/2000/svg" xmlns:xlink="http://www.w3.org/1999/xlink" x="0px" y="0px"
	 viewBox="0 0 40 48.4" style="enable-background:new 0 0 40 48.4;" xml:space="preserve">
<path d="M20,0C9,0,0,9,0,20c0,15.2,20,28.4,20,28.4S40,35.2,40,20C40,9,31,0,20,0z M20,35.5c-8.6,0-15.5-7-15.5-15.5
	c0-8.6,7-15.5,15.5-15.5s15.5,7,15.5,15.5C35.5,28.6,28.6,35.5,20,35.5z"/>
<path d="M25.5,11.6h-0.9h-9.3l-0.9,0v7.2l5.3-1.6l0.3-0.1l0.3,0.1l5.3,1.6V11.6z"/>
<path d="M16.2,30.1h3.3V18.3l-8.8,2.6L16.2,30.1z"/>
<path d="M20.4,30.1h3.3l5.6-9.3l-8.8-2.6V30.1z"/>
</svg>
