<?xml version="1.0" encoding="utf-8"?>
<!-- Generator: Adobe Illustrator 24.0.0, SVG Export Plug-In . SVG Version: 6.00 Build 0)  -->
<svg version="1.1" id="Слой_1" xmlns="http://www.w3.org/2000/svg" xmlns:xlink="http://www.w3.org/1999/xlink" x="0px" y="0px"
	 viewBox="0 0 23 22" style="enable-background:new 0 0 23 22;" xml:space="preserve">
<path d="M22.6,9.6l-4.7,4.6l1.1,6.4c0.1,0.5-0.1,0.9-0.5,1.2c-0.2,0.2-0.5,0.2-0.7,0.2c-0.2,0-0.4,0-0.6-0.1l-5.8-3l-5.8,3
	c-0.4,0.2-0.9,0.2-1.3-0.1C4,21.5,3.9,21,3.9,20.6L5,14.1L0.4,9.6C0,9.3-0.1,8.8,0.1,8.3c0.1-0.4,0.5-0.8,1-0.8l6.4-0.9l2.9-5.8
	C10.6,0.3,11,0,11.5,0c0.5,0,0.9,0.3,1.1,0.7l2.9,5.8l6.4,0.9c0.5,0.1,0.8,0.4,1,0.8C23.1,8.8,22.9,9.3,22.6,9.6z"/>
</svg>
