<?xml version="1.0" encoding="utf-8"?>
<!-- Generator: Adobe Illustrator 24.0.0, SVG Export Plug-In . SVG Version: 6.00 Build 0)  -->
<svg version="1.1" id="Слой_1" xmlns="http://www.w3.org/2000/svg" xmlns:xlink="http://www.w3.org/1999/xlink" x="0px" y="0px"
	 viewBox="0 0 23 22" style="enable-background:new 0 0 23 22;" xml:space="preserve">
<path d="M5.1,22c-0.3,0-0.5-0.1-0.7-0.2C4,21.5,3.9,21,3.9,20.6L5,14.1L0.4,9.6C0,9.3-0.1,8.8,0.1,8.3c0.1-0.5,0.5-0.8,1-0.8
	l6.4-0.9l2.9-5.8C10.6,0.3,11,0,11.5,0s0.9,0.3,1.1,0.7l2.9,5.8l6.4,0.9c0.4,0.1,0.8,0.4,1,0.8l0,0.1c0.1,0.4,0,0.9-0.3,1.3
	l-4.7,4.6l1.1,6.4c0.1,0.5-0.1,0.9-0.5,1.2c-0.4,0.3-0.9,0.3-1.3,0.1l-5.8-3l-5.8,3C5.5,22,5.3,22,5.1,22z M11.5,1
	c-0.1,0-0.2,0.1-0.2,0.1L8.2,7.5l-7,1C1.1,8.5,1,8.5,1,8.6c0,0.1,0,0.2,0.1,0.2l5,4.9l-1.2,6.9c0,0.1,0,0.2,0.1,0.2
	C5.1,21,5.2,21,5.3,21l6.2-3.3l6.2,3.3c0.1,0,0.2,0,0.2,0c0.1-0.1,0.1-0.1,0.1-0.2l-1.2-6.9l5-4.9C22,8.8,22,8.7,22,8.6l0,0
	c0-0.1-0.1-0.1-0.2-0.2l-7-1l-3.1-6.3C11.7,1,11.6,1,11.5,1z"/>
</svg>
