<?xml version="1.0" encoding="utf-8"?>
<!-- Generator: Adobe Illustrator 24.0.0, SVG Export Plug-In . SVG Version: 6.00 Build 0)  -->
<svg version="1.1" id="Слой_1" xmlns="http://www.w3.org/2000/svg" xmlns:xlink="http://www.w3.org/1999/xlink" x="0px" y="0px"
	 viewBox="0 0 18 16" style="enable-background:new 0 0 18 16;" xml:space="preserve">
<path d="M16.8,0.1L0.7,6.5C-0.2,6.8-0.2,7.7,0.5,8l4,1.3l1.6,5C6.3,14.8,6.4,15,6.7,15c0.3,0,0.5-0.1,0.8-0.4c0.4-0.4,1-1,2-2.1
	l4.2,3.3c0.8,0.4,1.3,0.2,1.5-0.8l2.6-13.7C18.2,0.1,17.6-0.2,16.8,0.1z M5.2,9l9.2-6.1c0.4-0.3,0.6,0,0.4,0.3l-7.6,7.2L6.7,14
	L5.2,9z"/>
</svg>
