<?xml version="1.0" encoding="utf-8"?>
<!-- Generator: Adobe Illustrator 24.0.0, SVG Export Plug-In . SVG Version: 6.00 Build 0)  -->
<svg version="1.1" id="Слой_1" xmlns="http://www.w3.org/2000/svg" xmlns:xlink="http://www.w3.org/1999/xlink" x="0px" y="0px"
	 viewBox="0 0 34 34" style="enable-background:new 0 0 34 34;" xml:space="preserve">
<path d="M24,20.3c2.6-2.1,4.3-5.3,4.3-9C28.4,5.1,23.2,0,17,0S5.6,5.2,5.6,11.4c0,3.7,1.7,6.9,4.3,9C4.2,22.7,0,27.9,0,34h3.8
	c0-6.2,6-11.2,13.2-11.2c7.2,0,13.2,5.1,13.2,11.2H34C34,27.9,29.8,22.7,24,20.3z M17,3.3c4.4,0,8,3.6,8,8c0,4.4-3.6,8-8,8
	s-8-3.6-8-8C9,7,12.6,3.3,17,3.3z"/>
</svg>
