<?xml version="1.0" encoding="utf-8"?>
<!-- Generator: Adobe Illustrator 24.0.0, SVG Export Plug-In . SVG Version: 6.00 Build 0)  -->
<svg version="1.1" id="Слой_1" xmlns="http://www.w3.org/2000/svg" xmlns:xlink="http://www.w3.org/1999/xlink" x="0px" y="0px"
	 viewBox="0 0 38.6 41.4" style="enable-background:new 0 0 38.6 41.4;" xml:space="preserve">
<path d="M37.5,33.7l-4.6-15c-0.6-2-0.9-3-1.7-3.5l-0.1-0.1c-0.8-0.5-1.8-0.5-3.9-0.5h-4.5c-0.8,0-1.4-0.6-1.4-1.4
	c0-0.6,0.4-1.1,0.9-1.4c1.9-1.1,3.2-3.1,3.2-5.4c0-3.4-2.8-6.2-6.1-6.2c-3.4,0-6.1,2.8-6.1,6.2c0,2.3,1.3,4.4,3.2,5.4
	c0.5,0.3,0.9,0.8,0.9,1.4c0,0.8-0.6,1.4-1.4,1.4h-4.5c-2.1,0-3.1,0-3.9,0.5l-0.1,0.1c-0.8,0.6-1.1,1.6-1.7,3.5l-4.6,15
	C0,37.2-0.5,39,0.4,40.2c0.9,1.2,2.8,1.2,6.5,1.2h24.8c3.7,0,5.6,0,6.5-1.2C39.1,39,38.6,37.2,37.5,33.7z M15.6,32.2v1.4H9.2v-1.1
	l3.4-3.3c0.4-0.4,0.6-0.7,0.8-1c0.1-0.3,0.2-0.6,0.2-0.8c0-0.4-0.1-0.7-0.4-0.9c-0.3-0.2-0.7-0.3-1.2-0.3c-0.9,0-1.6,0.3-2,0.9
	l-1.1-0.9c0.3-0.5,0.8-0.8,1.4-1.1c0.6-0.3,1.2-0.4,1.9-0.4c0.9,0,1.7,0.2,2.3,0.7s0.8,1.1,0.8,1.8c0,0.5-0.1,0.9-0.3,1.3
	c-0.2,0.4-0.6,0.9-1.1,1.4l-2.3,2.2L15.6,32.2L15.6,32.2z M16.2,6.2c0-1.7,1.4-3.1,3.1-3.1s3.1,1.4,3.1,3.1S21,9.3,19.3,9.3
	S16.2,7.9,16.2,6.2z M23.2,33.6h-6.4v-1.1l3.4-3.3c0.4-0.4,0.6-0.7,0.8-1c0.1-0.3,0.2-0.6,0.2-0.8c0-0.4-0.1-0.7-0.4-0.9
	c-0.3-0.2-0.7-0.3-1.2-0.3c-0.9,0-1.6,0.3-2,0.9l-1.1-0.9c0.3-0.5,0.8-0.8,1.4-1.1c0.6-0.3,1.2-0.4,1.9-0.4c0.9,0,1.7,0.2,2.3,0.7
	c0.6,0.5,0.8,1.1,0.8,1.8c0,0.5-0.1,0.9-0.3,1.3c-0.2,0.5-0.6,1-1.1,1.5l-2.3,2.2h4V33.6z M30.4,28.2h-0.1H28v5.3h-1.5v-5.3h-2.3
	v-1.3h6.2V28.2z"/>
</svg>
