<?xml version="1.0" encoding="utf-8"?>
<!-- Generator: Adobe Illustrator 24.0.0, SVG Export Plug-In . SVG Version: 6.00 Build 0)  -->
<svg version="1.1" id="Слой_1" xmlns="http://www.w3.org/2000/svg" xmlns:xlink="http://www.w3.org/1999/xlink" x="0px" y="0px"
	 viewBox="0 0 21.3 21.3" style="enable-background:new 0 0 21.3 21.3;" xml:space="preserve">
<g>
	<path d="M21.3,20.2L16,14.9c1.3-1.6,2.2-3.6,2.2-5.9c0-5-4.1-9.1-9.1-9.1C4.1,0,0,4.1,0,9.1c0,5,4.1,9.1,9.1,9.1
		c2.2,0,4.3-0.8,5.9-2.2l5.3,5.3L21.3,20.2z M1.5,9.1c0-4.2,3.4-7.6,7.6-7.6c4.2,0,7.6,3.4,7.6,7.6c0,4.2-3.4,7.6-7.6,7.6
		C4.9,16.7,1.5,13.3,1.5,9.1z"/>
	<polygon points="9.8,4.1 8.3,4.1 8.3,8.3 4.1,8.3 4.1,9.8 8.3,9.8 8.3,14.1 9.8,14.1 9.8,9.8 14.1,9.8 14.1,8.3 9.8,8.3 	"/>
</g>
</svg>
