<svg width="127" height="19" viewBox="0 0 127 19" fill="none" xmlns="http://www.w3.org/2000/svg">
<path fill-rule="evenodd" clip-rule="evenodd" d="M1.73196 0L0 19H9.52577L9.95876 13.3452L12.1237 19H16.2371L19.268 13.119L18.6186 19H28.1443L29.8763 0H20.3505L14.9381 10.4048L11.2577 0H1.73196ZM53.4744 0H31.8249L30.9589 7.01191H40.2682L40.4847 5.20238H43.2991L43.0826 7.46429H41.1342L40.7012 11.5357H42.6497L42.4332 13.7976H39.6187L39.8352 11.9881H30.5259L29.8765 19H48.2785L51.7424 16.0595L52.3919 10.1786L48.7115 9.04762L52.8249 7.46429L53.4744 0Z" fill="url(#paint0_linear)"/>
<path d="M61.7012 0H82.9177L81.4022 15.8333L77.9383 19H59.9692L61.7012 0ZM69.7115 14.0238H71.8765L72.7424 5.20238H70.5775L69.7115 14.0238Z" fill="white"/>
<path d="M82.9175 19L84.6494 0H105.433L104.134 12.8929L100.67 15.8333H92.2268L92.0103 19H82.9175ZM93.3092 4.97619L92.6598 11.5357H94.8247L95.4742 4.97619H93.3092Z" fill="white"/>
<path d="M106.732 4.97619L107.381 0H126.216L125.567 4.97619H121.887L120.588 19H109.113L110.412 4.97619H106.732Z" fill="white"/>
<defs>
<linearGradient id="paint0_linear" x1="53.4744" y1="2.72909" x2="1.44884" y2="22.7625" gradientUnits="userSpaceOnUse">
<stop stop-color="#FF3D00"/>
<stop offset="1" stop-color="#FF2507"/>
</linearGradient>
</defs>
</svg>
