<svg width="1351" height="895" viewBox="0 0 1351 895" fill="none" xmlns="http://www.w3.org/2000/svg">
<path d="M1121.12 629.321L1108.48 632.775L1116.68 636.722L1094.9 651.647L1081.58 646.22L1061.65 670.581L1044.49 660.713L1020.93 665.956L1012.84 678.291L985.017 697.163L982.055 686.123L972.739 701.85L965.027 696.176V683.595L952.687 676.317L936.83 662.625V656.458L942.692 648.132L943.247 636.291L931.154 625.806L924.429 608.106L926.095 596.572L918.814 592.502L914.249 594.352L906.475 575.295L908.326 569.128H920.974L935.473 562.96L947.257 566.722L955.34 566.167L955.093 550.317L959.906 544.951L956.697 535.824L951.885 528.854L955.34 519.418L949.17 511.154L951.576 504.432L965.027 500.114H990.261L998.899 502.828L1009.63 499.066L1020.37 502.828L1030.86 503.63L1040.24 513.004L1045.91 524.044L1040.79 529.903L1051.53 530.705L1068.99 530.458L1078.43 527.498L1085.96 543.595L1095.33 554.079L1106.38 559.198L1121.12 565.921L1123.04 573.691L1120.57 581.462L1109.03 587.691L1101.26 594.352L1103.11 606.44L1111.19 608.106L1113.1 615.321L1126 618.035L1121.12 629.321Z" stroke="#484848" stroke-width="2" stroke-miterlimit="10" stroke-linecap="round" stroke-linejoin="round"/>
<path d="M1260.87 520.775L1258.84 529.04L1248.66 528.423L1247.24 539.524L1239.77 550.194L1231.5 553.216L1214.35 554.634L1210.16 565.304L1208.74 583.621L1210.16 596.326L1202.87 605.577L1203.24 615.26L1168.39 616.678L1157.9 617.11L1137.72 634.256L1125.01 631.049L1116.62 636.846L1108.48 632.96L1121.12 629.445L1125.94 618.159L1113.04 615.445L1111.19 608.106L1103.11 606.502L1101.2 594.414L1108.97 587.692L1120.51 581.524L1122.91 573.753L1121.06 565.982L1106.25 559.26L1095.27 554.141L1085.83 543.656L1078.31 527.559L1073.99 524.352L1083.67 520.035L1078.86 510.352L1081.58 501.718L1104.65 511.401L1096.57 495.304L1104.65 487.533V477.604L1094.16 469.278L1097.93 456.943L1104.65 448.062C1104.65 448.062 1093.67 451.022 1093.11 452.07C1092.56 453.181 1093.67 445.101 1093.67 445.101L1084.23 443.744L1090.95 432.767L1089.35 425.242L1096.63 422.837L1099.84 427.154L1102.8 419.877L1113.04 426.352L1115.69 419.877L1125.94 417.471L1129.14 410.749L1135.31 409.392L1131.3 397.304L1153.58 385.771L1157.34 376.643H1149.81L1150.92 371.524L1160.06 369.612L1161.41 375.78L1176.16 374.423L1178.57 380.035L1186.89 381.947L1192.51 387.559L1190.91 399.894L1186.09 405.26L1196.58 407.172L1204.66 413.092L1208.43 423.33L1204.66 432.458L1205.77 451.269L1214.1 461.753L1221.38 469.833L1225.95 484.326L1228.91 494.811L1238.04 496.969L1243.97 504.493L1249.89 510.414L1259.02 508.256L1260.87 520.775Z" stroke="#484848" stroke-width="2" stroke-miterlimit="10" stroke-linecap="round" stroke-linejoin="round"/>
<path d="M1324.42 394.652L1310.72 397.057L1312.14 407.233L1333.31 405.136L1334.11 416.423L1329.67 427.277L1315.97 429.313L1307.08 434.123C1307.08 434.123 1306.28 443.806 1311.09 443.374C1315.91 443.004 1325.78 451.268 1325.78 451.268L1329.42 472.608L1334.85 482.846L1332.07 498.942L1324.61 517.26L1312.7 528.731L1299.37 531.568L1258.77 528.978L1260.81 520.713L1258.96 508.07L1249.83 510.229L1243.9 504.308L1237.98 496.784L1228.85 494.625L1225.89 484.141L1221.32 469.647L1214.04 461.568L1205.71 451.083L1204.6 432.273L1208.37 423.145L1204.6 412.907L1196.52 406.987L1186.03 405.075L1190.84 399.709L1192.45 387.374L1186.83 381.762L1178.5 379.85L1176.1 374.238L1180.66 366.467L1176.1 357.339L1180.66 342.044L1185.78 336.678L1182.02 330.202L1185.78 321.63L1184.18 314.661L1187.7 307.938L1181.9 301.462V289.128L1188.99 287.771L1194.92 274.881L1186.46 275.189L1192.32 266.493L1206.82 272.537L1216.26 281.172L1236.44 280L1251.74 293.26L1267.04 289.621L1280.55 297.083V305.779L1299.68 308.987L1308.13 324.713L1317.02 327.119L1324.67 324.713L1344.41 327.92L1348.24 338.22C1348.24 338.22 1338.18 340.625 1337.56 340.81C1336.95 340.995 1337.56 351.727 1337.56 351.727L1349.47 362.828L1338.8 381.947L1333.74 387.991L1324.42 394.652Z" stroke="#484848" stroke-width="2" stroke-miterlimit="10" stroke-linecap="round" stroke-linejoin="round"/>
<path d="M835.521 31.022L846.38 40.2731L840.766 42.3083L835.892 55.9999H828.241L815.346 70.4933L822.626 89.859L825.033 104.352L819.171 110.396V123.286L814.174 128.097L815.778 144.255L810.102 147.833V158.317L821.022 161.586L828.241 158.317L825.835 164.793L828.241 176.881L820.59 180.088L822.195 188.969V201.427L818.986 222.088L809.731 232.449L799.613 240.097L779.499 240.899L771.417 237.692L760.126 239.295L752.907 244.969L746.059 247.744L739.58 240.529L736.372 229.674L743.591 222.088H733.966L728.721 212.714L718.233 219.991L702.129 229.674L679.116 222.088L676.709 208.273L666.653 200.625L647.279 197.788V185.33L638.395 180.088V169.233L631.176 167.198V137.78L631.978 127.295L633.212 127.11L627.166 108.176L632.965 75.3656L646.909 49.1541L658.755 37.4977L662.58 27.5682L676.709 28.8017L682.941 37.8678L686.396 20.7841L711.384 27.8149L727.487 29.6035L734.583 37.4977H747.663L759.756 26.3964L764.383 8.881L779.067 7.4625L791.592 13.8766L811.151 15.2951L829.043 3.82373L847.429 4.81051L838.73 15.7268L835.521 31.022Z" stroke="#484848" stroke-width="2" stroke-miterlimit="10" stroke-linecap="round" stroke-linejoin="round"/>
<path d="M1012.84 227.639L1011.79 233.128V243.057L1008.52 249.286L990.261 247.621L977.366 254.652L967.68 260.018L954.785 264.828L943.926 266.74L926.218 275.559L920.172 270.194L924.984 260.696L920.172 257.859L912.891 245.339L906.845 232.079V222.088H897.158L891.544 234.485L883.893 222.088H874.577V227.639L862.545 230.476L845.578 224.802L827.871 225.604V219.991L818.986 222.088L822.194 201.427V188.969L820.59 180.088L828.241 176.881L825.835 164.793L828.241 158.317L821.022 161.586L810.102 158.317V147.833L815.778 144.256L814.174 128.097L819.171 123.286V110.396L825.033 104.352L822.626 89.859L815.346 70.4934L828.241 56H835.892L840.766 42.3084L846.38 40.2731L835.521 31.022L838.73 15.7269L847.429 4.81056L850.206 15.2951L864.52 2.40527H870.813L886.484 18.9339L897.59 24.7929L900.181 50.3877L919.555 65.6828L920.974 83.63L912.274 95.9031L903.39 95.1013L908.881 108.176L917.704 113.789L914.496 117.427L915.113 130.934L935.473 136.793L948.738 142.837L958.857 137.595L974.59 139.198L982.241 157.762L997.11 160.537L998.344 175.833L1007.23 197.233L1005.81 211.542L1007.23 223.383L1012.84 227.639Z" stroke="#484848" stroke-width="2" stroke-miterlimit="10" stroke-linecap="round" stroke-linejoin="round"/>
<path d="M1182.02 289.251V301.648L1187.76 308.062L1184.3 314.784L1185.91 321.753L1182.14 330.388L1185.91 336.802L1180.79 342.167L1176.22 357.463L1180.79 366.652L1176.22 374.423L1161.47 375.78L1160.12 369.551L1150.99 371.463L1149.88 376.582H1157.4L1153.64 385.709L1131.37 397.242L1135.38 409.33L1129.21 410.687L1126 417.41L1115.76 419.815L1113.1 426.229L1102.86 419.815L1099.9 427.031L1096.69 422.775L1089.41 425.181L1091.02 432.705L1084.29 443.683L1077.87 441.586L1068.99 443.991L1062.82 453.921L1057.45 446.396L1055.29 436.714L1048.87 432.15L1047.21 421.665L1038.39 417.41V405.322L1029.5 402.855H999.948L987.3 394.529L976.071 384.908L963.978 381.392L960.708 376.582L961.818 366.344L973.603 362.582L985.449 359.93L988.164 352.899L984.894 342.723H994.025L997.233 331.991L992.421 321.198H985.449L976.873 314.784L977.366 305.656L971.752 300.044L956.451 298.687L951.33 289.56V278.52L954.785 264.828L967.68 260.018L977.366 254.652L990.261 247.621L1008.52 249.286L1011.79 243.057V233.128L1012.84 227.639L1025.74 221.78L1052.33 227.392L1058.01 239.48L1073.31 240.714L1079.35 249.163L1096.07 234.855L1114.21 236.088L1130.93 225.789H1143.03L1156.54 239.727L1161.17 253.234L1173.26 268.96L1186.59 275.374L1195.04 275.066L1189.12 287.956L1182.02 289.251Z" stroke="#484848" stroke-width="2" stroke-miterlimit="10" stroke-linecap="round" stroke-linejoin="round"/>
<path d="M1085.4 795.101L1075.71 784.616L1059.98 782.581L1040.61 781.779L1038.39 790.044L1029.5 790.846L1023.64 782.211L1016.61 788.07L1003.09 798.37L991.002 797.136L977.675 778.202L962.929 757.048L962.127 747.365L956.698 736.696L952.44 719.55L958.302 722.572L957.315 725.965L964.595 726.396L981.932 715.912L982.117 707.277L964.595 711.903L960.153 720.784L952.687 718.132L955.525 708.881L947.073 713.013V717.515H939.792L940.409 725.163L949.109 728.185V743.295L953.921 749.154H958.549V756.617L961.14 764.079L962.929 770.308L956.081 763.832L954.662 759.207L945.962 755.383L942.754 745.33L940.162 743.11L944.173 737.251L940.162 735.462L926.835 752.361L924.553 747.735L934.486 735.832L933.499 726.766L927.021 726.89L919.123 728.123L924.491 732.44L917.519 737.251L912.707 723.806L903.02 729.172L894.444 715.172L884.202 717.885L869.703 708.202L856.561 709.313V720.599L848.602 723.436L854.278 726.15L858.72 733.427L843.604 734.044L833.362 741.506L816.025 745.947L800.107 755.815L782.584 770.123C782.584 770.123 765.062 782.828 764.26 783.198C763.458 783.63 769.874 793.683 769.874 793.683L782.955 800.528L797.886 792.264L811.398 793.683L819.48 808.978L828.55 817.427L839.039 817.242L845.702 820.696L853.784 828.775V844.502L850.761 863.251L840.704 864.484L837.249 869.11L840.087 873.55L854.957 889.277L873.281 893.718L894.629 890.326L910.362 881.013L918.445 867.321L929.92 856.652L941.026 849.621L953.304 846.229L959.536 852.088L968.235 850.669L970.456 842.405L983.783 834.572L987.424 819.832L1007.78 822.053L1019.07 831.735L1034.56 830.749L1049.86 829.515L1064.55 827.727L1071.4 821.251L1068.74 809.779L1077.81 803.92L1085.4 795.101ZM988.843 805.771L966.508 793.066L968.359 778.757L970.95 783.815L992.113 803.735L988.843 805.771Z" stroke="#484848" stroke-width="2" stroke-miterlimit="10" stroke-linecap="round" stroke-linejoin="round"/>
<path d="M972.739 701.85L955.648 708.881L947.134 713.013L940.286 711.656L929.242 714.308L929.427 718.502H931.833L935.658 719.982L933.684 726.828L927.206 726.89L919.37 728.123L919.863 720.106L924.738 713.075L912.891 708.264L905.364 704.502L902.711 699.692L897.282 706.661L890.31 708.819L879.574 705.551L869.888 708.264L856.746 709.374V720.661L848.787 723.498L841.321 719.982L831.511 711.656L815.531 718.749L817.567 726.397L818.554 733.057L812.508 735.463L801.279 731.454L790.358 727.445L787.767 723.189L801.649 723.374L812.508 722.758L811.953 719.982L798.441 719.736H789.556L784.558 723.991L772.651 720.969L759.571 711.101L747.046 708.264L732.732 701.234L722.243 700L719.22 690.564L727.117 686.308L731.128 681.868L721.873 675.454L727.796 669.04L731.004 662.071L736.372 657.753L747.91 653.745L755.992 648.934H763.519L767.283 645.172L772.095 647.022L780.178 640.3L791.962 645.172L802.451 647.022L808.374 639.806L812.138 635.736L808.374 630.123H816.58V622.599L808.374 618.035L810.225 606.996L818.308 604.344L824.786 600.582V587.137L818.061 585.286L816.148 579.057H824.786L822.873 567.524L824.786 564.564L830.401 561.604L838.73 566.722L840.889 572.643L844.9 568.079L851.131 567.771L854.031 564.317L861.003 565.921V571.286L873.096 572.643L879.327 570.731L887.348 572.643L903.205 574.802L906.475 575.295L914.249 594.352L918.814 592.502L926.095 596.573L924.429 608.106L931.154 625.806L943.247 636.291L942.692 648.132L936.83 656.458V662.626L952.687 676.317L965.027 683.595V696.176L972.739 701.85Z" stroke="#484848" stroke-width="2" stroke-miterlimit="10" stroke-linecap="round" stroke-linejoin="round"/>
<path d="M670.293 629.815V636.846L679.918 641.101L678.314 652.943L676.709 662.872L678.128 663.983L665.85 669.41L653.758 670.828V686.309L642.837 697.595V703.824L633.212 718.564H624.944V732.441L603.165 752.176L600.142 748.353L589.221 754.027L582.372 767.287L575.524 772.714H570.279L567.688 778.758L575.524 779.806L576.573 787.207L579.349 800.529L574.352 808.361L567.688 812L564.85 802.132L558.433 793.251L540.109 791.463L519.933 799.542L512.468 807.005L502.411 803.366L498.771 810.212L482.051 807.56L476.004 801.146L469.526 799.912L456.816 779.19L460.456 769.137L470.328 766.916L472.981 745.331L485.259 741.383L485.074 726.828L499.758 716.961L501.177 684.52L498.771 670.828L529.003 656.705L555.287 668.608L572.13 660.714L572.562 644.617L552.14 626.053L543.873 601.938L536.469 581.956L519.502 575.542L516.293 553.771L521.723 529.78L505.434 521.146L504.077 514.731L510.247 511.648H518.329L524.746 496.784L531.224 507.639H544.49L549.734 501.163L559.421 507.639L567.503 503.322V494.749H575.4L589.9 492.344L598.229 503.322L613.283 500.361L608.224 506.035L614.887 508.441L610.63 519.172L615.998 531.013L621.921 545.507L624.019 557.348L654.128 558.952L659.002 570.238L655.732 580.414L656.842 592.256L664.616 598.67H676.709L675.907 603.789L679.918 611.066L689.604 618.529L685.039 627.41L670.293 629.815Z" stroke="#484848" stroke-width="2" stroke-miterlimit="10" stroke-linecap="round" stroke-linejoin="round"/>
<path d="M824.786 579.057H816.148L818.061 585.286L824.786 587.137V600.582L818.308 604.344L810.225 606.996L808.374 618.035L816.58 622.599V630.123H808.374L812.138 635.736L808.374 639.806L802.451 647.022L791.962 645.172L780.178 640.3L772.096 647.022L767.283 645.172L763.519 648.934H755.992L747.91 653.745L736.372 657.753L731.004 662.071L727.796 669.04L721.873 675.454L716.814 682.916L714.592 687.542L707.744 675.454L702.314 665.154L697.687 668.608L686.766 667.375L678.129 663.982L676.71 662.872L678.314 652.943L679.918 641.101L670.293 636.846V629.815L685.039 627.41L689.605 618.529L679.918 611.066L675.907 603.789L676.71 598.67H664.617L656.843 592.256L655.732 580.414L659.002 570.238L654.128 558.952L624.019 557.348L621.921 545.507L615.998 531.013L610.63 519.172L614.888 508.441L608.224 506.035L613.283 500.361L625.376 496.908L637.222 500.67L644.75 496.908H656.041L661.902 501.163L663.259 492.344H674.303L683.681 497.709L689.605 503.322L704.412 501.718L703.055 509.489L711.384 503.877L724.773 504.432V511.401L718.356 513.56L722.675 521.084L732.608 521.331L725.081 537.427L738.223 541.991L739.58 537.983L745.75 539.339L753.833 544.15L760.249 533.974L771.54 537.983L787.15 536.626L789.865 521.331L803.562 517.568L808.93 511.154L818.308 511.401L819.912 515.163V527.251L822.071 546.308L816.704 549.022L814.051 556.485L817.752 558.15L824.786 564.564L822.873 567.524L824.786 579.057Z" stroke="#484848" stroke-width="2" stroke-miterlimit="10" stroke-linecap="round" stroke-linejoin="round"/>
<path d="M547.869 308.753V321.89L558.296 341.009L543.427 330.154L531.704 335.581H517.637L512.392 322.507L516.032 318.066L509.986 305.546L503.137 301.106L489.811 309.555L493.019 318.436L479.322 312.824L466.859 315.599L454.766 318.066L449.09 315.599L436.997 317.264L428.976 314.797L414.045 312.824L410.034 294.26L416.883 286.612L413.613 281L417.253 275.758L413.243 257.996L404.358 263.67L391.895 251.15L383.381 241.899L389.057 235.485L381.406 227.775L385.417 222.965L379 216.119L387.823 201.996L379 179.053L382.579 169.37L391.093 160.119L397.078 146.797L402.322 142.357L401.952 125.088L405.592 119.044L412.811 126.26L412.441 114.604L417.685 110.163L423.546 107.326L429.963 91.2291L442.241 98.2599L458.591 85.5551L467.229 85L469.82 99.6784L476.916 94.2511L486.972 95.8546L494.438 111.335L499.682 101.714L508.752 95.8546L516.835 88.022L529.298 89.8106L539.972 102.084L543.18 114.604L541.391 123.423L543.427 136.744L536.146 140.383V153.643H545.833L552.681 162.956L542.995 170.974L545.833 175.414L547.869 188.304L556.692 195.952V205.634L551.879 217.722L547.869 229.009V239.863L555.89 242.7L563.972 257.194L568.785 274.154L561.134 286.612L573.104 296.172L562.738 305.176L547.869 308.753Z" stroke="#484848" stroke-width="2" stroke-miterlimit="10" stroke-linecap="round" stroke-linejoin="round"/>
<path d="M595.268 470.819L590.764 476.185L581.571 470.819L572.994 485.868L575.401 494.749H567.503V503.322L559.421 507.639L549.734 501.163L544.49 507.639H531.225L524.746 496.784L518.33 511.648H510.247L504.077 514.731L500.807 498.758L477.794 504.432L452.004 484.696L426.399 471.991H405.359L406.285 464.899L406.655 452.441L397.832 445.163L401.041 427.216L394.994 410.132L399.807 394.035L413.133 385.586L415.972 389.595H426.831L430.841 381.516V367.022L418.748 349.322L426.645 335.198L424.424 327.551L428.867 315.031L436.887 317.498L448.98 315.833L454.657 318.3L466.75 315.833L479.213 313.057L492.91 318.67L489.701 309.789L503.028 301.339L509.877 305.78L515.923 318.3L512.283 322.74L517.527 335.815H531.595L543.317 330.388L558.187 341.242L557.385 358.141L552.14 369.057L564.233 374.67L569.91 383.551L560.223 398.846L565.097 410.934L569.91 419.383L577.992 428.696L575.401 438.071H582.002L588.419 443.991L590.455 448.802L592.491 457.683L589.653 462.925L595.268 470.819Z" stroke="#484848" stroke-width="2" stroke-miterlimit="10" stroke-linecap="round" stroke-linejoin="round"/>
<path d="M417.576 110.397L412.331 114.837L412.701 126.494L405.483 119.278L401.842 125.322L402.213 142.59L396.968 147.031L390.984 160.353L382.469 169.604L378.891 179.286L387.714 202.229L378.891 216.353L385.307 223.198L381.297 228.009L374.448 222.088H369.327L359.085 229.674L347.856 232.881L342.982 244.661L327.928 260.264L319.598 263.472L314.477 271.551L313.367 273.956L310.22 265.63L305.408 261.066L289.798 257.057L280.667 268.344L267.463 272.353L256.234 270.194L251.607 273.154L250.804 282.529L244.141 289.806L234.146 280.925L230.691 265.63L235.256 260.018L226.619 257.057L232.295 245.216L226.619 233.375L233.344 224.802H241.18L244.141 213.022H258.332L263.699 205.19L278.26 217.586L285.479 210.864L281.222 197.419L295.721 186.687L289.798 179.163L298.127 174.044V167.075L286.281 164.916L288.441 157.947L300.534 153.383L282.271 137.78L278.507 125.445L272.337 127.85L266.167 130.811L258.887 130.009L262.404 116.811L264.81 101.824L259.689 96.3966L258.085 81.9032L266.661 73.8856L262.404 67.4098L257.159 56.9869L282.147 50.1411L291.834 59.4539L306.703 57.4186L315.588 62.2292H336.134L337.368 68.52L359.949 71.542L379.446 73.5156L387.96 79.7446L386.911 85.6037L392.156 92.4495L409.678 89.8592L423.19 94.9164L423.437 107.56L417.576 110.397Z" stroke="#484848" stroke-width="2" stroke-miterlimit="10" stroke-linecap="round" stroke-linejoin="round"/>
<path d="M286.281 164.916L298.127 167.075V174.044L289.798 179.163L295.721 186.687L281.222 197.419L285.479 210.864L278.26 217.586L263.699 205.19L258.332 213.022H244.141L241.179 224.802H233.344L226.619 233.375L232.295 245.216L226.619 257.057L218.598 248.731L207.862 251.938L196.571 248.176L189.846 239.85L179.111 238.247L184.478 228.564L175.039 225.11V220.855L164.303 222.088L152.58 219.56L148.138 204.264L140.858 195.383L148.693 182.123L157.208 184.344L141.475 162.141L132.775 145.427L123.335 142.035L118.091 128.714L125.988 121.868L118.276 101.516L127.777 89.6124H139.439L149.742 101.947L168.869 77.1543L173.496 61.6124L196.263 59.8239L227.729 58.6521L244.018 49.1543L257.159 56.9869L262.404 67.4098L266.661 73.8856L258.085 81.9032L259.689 96.3966L264.81 101.824L262.404 116.811L258.887 130.009L266.167 130.811L272.337 127.85L278.507 125.445L282.271 137.78L300.533 153.383L288.44 157.947L286.281 164.916Z" stroke="#484848" stroke-width="2" stroke-miterlimit="10" stroke-linecap="round" stroke-linejoin="round"/>
<path d="M406.655 452.441L406.285 464.899L405.359 471.991H397.4L367.168 476L343.969 489.877L319.228 509.859L285.541 520.097L252.902 524.352L235.565 535.022L225.693 545.692L210.392 546.925L214.279 539.339L216.439 526.449L212.922 513.806L215.883 503.322L225.015 496.908L231.74 483.709L244.141 473.533L254.568 469.771H262.404L264.008 457.93L260.8 450.159L263.7 442.388H270.178V448L278.26 448.802V445.841L282.271 442.388L284.122 452.996L287.392 455.524L292.204 448H298.683L301.583 453.674L308.616 457.93L317.501 454.969L328.236 460.397L339.774 461.692L341.625 456.079L349.954 450.96L358.592 453.921H377.657L388.639 448L397.832 445.163L406.655 452.441Z" stroke="#484848" stroke-width="2" stroke-miterlimit="10" stroke-linecap="round" stroke-linejoin="round"/>
<path d="M264.008 457.93L262.404 469.771H254.63L244.141 473.533L231.802 483.771L225.076 496.908L215.945 503.383L212.984 513.868L216.5 526.511L214.341 539.401L210.454 546.987L200.52 531.013L185.404 521.947L188.736 516.52L191.944 513.313L189.538 503.383L183.368 489.137L176.89 478.406L169.609 473.842L157.517 476.802L160.478 462.555L151.902 456.635L141.413 459.595L136.848 455.031L128.827 446.952L119.078 440.476L113.155 435.912L115.315 428.635L113.155 409.824L120.127 403.903L123.089 389.657L137.588 393.419L153.691 388.608C153.691 388.608 168.19 388.053 168.992 386.696C169.795 385.339 178.371 382.132 178.371 382.132L170.288 376.212L172.448 367.084L175.409 358.203L166.278 349.075L180.777 343.709L196.387 349.075L202.001 353.084L210.392 376.828L208.665 384.353L210.392 391.075L217.796 392.432L214.032 398.353L219.153 404.52L227.483 408.035L233.961 417.163L236.367 425.489L241.982 427.894L247.596 424.132H253.211L263.7 433.815V442.388L260.738 450.159L264.008 457.93Z" stroke="#484848" stroke-width="2" stroke-miterlimit="10" stroke-linecap="round" stroke-linejoin="round"/>
<path d="M248.707 297.084L240.625 306.705L230.136 309.665L226.372 315.586L225.57 322.308L221.004 324.714L216.439 334.643L207.863 338.405L197.929 341.921L196.572 349.198L180.962 343.833L166.463 349.198L175.594 358.326L172.633 367.207L170.473 376.335L178.556 382.255C178.556 382.255 169.98 385.462 169.178 386.819C168.376 388.176 153.876 388.731 153.876 388.731L137.773 393.542L123.274 389.78L120.312 404.026L113.34 409.947L115.5 428.758L113.34 436.035L100.445 434.678L92.3629 429.313L82.6763 428.264V418.828L71.3854 421.233L65.4624 406.74L61.3286 394.344L47.6315 377.445L54.2333 361.41L42.7573 341.489L57.8735 312.687L98.1626 266.37L121.176 250.273L123.582 237.383L145.547 233.128L152.581 219.621L164.303 222.15L175.039 220.855V225.11L184.479 228.564L179.111 238.247L189.847 239.85L196.572 248.176L207.863 251.938L218.598 248.731L226.681 257.057L235.318 260.018L230.753 265.63L234.27 280.925L244.203 289.806L248.707 297.084Z" stroke="#484848" stroke-width="2" stroke-miterlimit="10" stroke-linecap="round" stroke-linejoin="round"/>
<path d="M192.006 513.251L188.736 516.52L185.404 521.947L172.509 522.749L153.136 523.119L109.638 515.286L86.4397 504.432L77.37 512.634L65.277 519.11L59.2306 515.101L55.8372 501.595L44.3612 506.035L29.6153 485.498L20.3605 480.256L15.1161 465.762H2.40625L5.86137 445.595L22.7668 427.031L25.173 404.088L40.104 390.396L61.2666 394.22L65.4004 406.617L71.3235 421.172L82.6143 418.705V428.141L92.301 429.189L100.384 434.555L113.279 435.912L119.202 440.476L128.888 446.952L136.909 454.969L141.475 459.533L151.963 456.573L160.54 462.493L157.578 476.74L169.671 473.78L176.951 478.344L183.368 489.075L189.538 503.322L192.006 513.251Z" stroke="#484848" stroke-width="2" stroke-miterlimit="10" stroke-linecap="round" stroke-linejoin="round"/>
<path d="M1094.29 469.216L1104.77 477.542V487.471L1096.69 495.242L1104.77 511.339L1081.7 501.656L1078.98 510.291L1083.8 519.974L1074.11 524.291L1078.43 527.498L1068.99 530.458L1051.53 530.705L1040.79 529.903L1045.91 523.982L1040.3 512.943L1030.92 503.568L1020.43 502.766L1009.7 499.004L998.961 502.766L990.385 500.053H965.15L951.7 504.37L949.294 511.092L955.464 519.418L952.008 528.855L956.821 535.824L960.029 544.951L955.217 550.317L955.464 566.167L947.381 566.722L935.535 562.96L921.036 569.128H908.388L906.475 575.295L903.267 574.74L887.41 572.581L879.328 570.731L873.158 572.581L861.065 571.225V565.859L854.093 564.255L851.131 567.709L844.962 567.956L840.951 572.52L838.792 566.599L830.462 561.48L824.848 564.44L817.876 557.965L814.112 556.361L816.765 548.837L822.133 546.123L819.974 527.066V514.978L828.056 506.899L832.622 503.938L838.792 498.819L851.687 495.057L856.252 491.048L853.599 480.872L850.083 467.181V455.894L859.769 447.815H874.268L875.07 437.762H864.582L850.083 426.476L860.571 423.269L872.664 424.07L879.143 424.872V416.793L892.469 421.233L906.598 428.511L911.843 422.467V408.344L919.493 391.013L934.424 384.167L949.726 381.207H964.101L976.194 384.661L987.485 394.344L1000.13 402.67H1029.69L1038.57 405.075V417.163L1047.46 421.48L1049.06 431.965L1055.54 436.529L1057.7 446.211L1063.07 453.736L1069.24 443.806L1078.12 441.401L1084.6 443.559L1094.04 444.916C1094.04 444.916 1092.93 452.996 1093.48 451.885C1094.04 450.775 1105.02 447.877 1105.02 447.877L1098.3 456.758L1094.29 469.216Z" stroke="#484848" stroke-width="2" stroke-miterlimit="10" stroke-linecap="round" stroke-linejoin="round"/>
<path d="M721.873 675.454L720.762 679.771" stroke="#484848" stroke-width="2" stroke-miterlimit="10" stroke-linecap="round" stroke-linejoin="round"/>
<path d="M799.243 392.431L798.132 404.211L779.869 409.577L776.414 401.004L765.679 394.282L753.031 400.449L749.267 414.449L741.74 410.687L732.053 419.26L721.071 409.33L705.708 412.846L702.808 428.141L694.17 434.555L688.802 431.903L680.473 430.546L673.748 435.418L665.727 430.546H637.469V437.022L633.706 448L635.063 454.476L626.178 453.119L611.432 464.097L601.746 465.762L595.267 470.819L589.653 462.925L592.491 457.683L590.455 448.801L588.419 443.991L582.002 438.07H575.4L577.992 428.696L569.909 419.383L565.097 410.934L560.223 398.846L569.909 383.55L582.804 379.542L597.303 368.255L605.756 371.031L618.281 379.542L623.093 361.779L643.269 366.652L660.976 353.33L675.907 338.035L676.71 310.652L690.838 302.942L710.15 307.815L724.279 296.405L729.894 275.991L736.742 264.273L743.591 260.696L754.882 269.515L759.756 280L769.442 283.207L770.244 297.762L767.777 304.978L778.265 313.859L785.114 322.308L795.232 326.749L797.639 340.44L792.394 344.079L797.207 361.779L797.885 372.819L793.073 377.63L799.243 392.431Z" stroke="#484848" stroke-width="2" stroke-miterlimit="10" stroke-linecap="round" stroke-linejoin="round"/>
<path d="M994.025 342.722H984.894L988.164 352.899L985.449 359.93L973.603 362.582L961.818 366.344L960.708 376.582L963.978 381.392H949.602L934.239 384.352L919.37 391.198L911.657 408.529V422.652L906.475 428.696L892.346 421.419L879.019 416.978L869.394 410.441L854.833 411.489L842.493 407.727L839.532 395.084L832.005 395.639L824.478 381.392L809.978 380.035L797.885 372.819L797.207 361.78L792.394 344.079L797.639 340.441L795.232 326.749L785.114 322.308L778.265 313.859L767.777 304.978L770.245 297.762L769.442 283.207L759.756 280L754.882 269.515L743.591 260.696L746.059 247.745L752.907 244.969L760.126 239.295L771.417 237.692L779.499 240.899L799.613 240.097L809.732 232.449L818.986 222.088L827.871 219.991V225.604L845.578 224.802L862.545 230.476L874.577 227.639V222.088H883.893L891.544 234.485L897.158 222.088H906.845V232.079L912.891 245.339L920.172 257.859L924.984 260.696L920.172 270.194L926.218 275.559L943.926 266.74L954.785 264.828L951.33 278.52V289.559L956.451 298.687L971.752 300.044L977.366 305.656L976.873 314.784L985.449 321.198H992.421L997.233 331.991L994.025 342.722Z" stroke="#484848" stroke-width="2" stroke-miterlimit="10" stroke-linecap="round" stroke-linejoin="round"/>
<path d="M746.022 247.824L743.554 260.775L736.705 264.352L729.857 276.07L724.242 296.485L710.113 307.894L690.802 303.022L676.673 310.731L675.871 338.115L660.94 353.41L643.232 366.731L623.057 361.859L618.244 379.621L605.719 371.11L597.267 368.335L582.767 379.621L569.873 383.63L564.196 374.749L552.103 369.137L557.348 358.22L558.15 341.322L547.723 322.203V309.066L562.592 305.489L572.957 296.485L560.988 286.925L568.639 274.467L563.826 257.507L555.744 243.013L547.723 240.176V229.322L551.733 218.035L556.546 205.947V196.264L547.723 188.617L545.687 175.727L542.849 171.286L552.535 163.269L545.687 153.956H536V140.696L543.28 137.057L541.244 123.736L543.034 114.916L557.163 104.432L577.955 105.419L579.127 110.291L589.431 104L609.36 106.22L620.835 128.978L631.941 127.374L631.139 137.859V167.278L638.358 169.313V180.167L647.242 185.41V197.868L666.616 200.705L676.673 208.352L679.079 222.167L702.092 229.753L718.196 220.07L728.685 212.793L733.929 222.167H743.554L736.335 229.753L739.543 240.608L746.022 247.824Z" stroke="#484848" stroke-width="2" stroke-miterlimit="10" stroke-linecap="round" stroke-linejoin="round"/>
<path d="M430.841 367.022V381.515L426.83 389.595H415.972L413.133 385.586L399.807 394.035L394.994 410.132L401.04 427.216L397.832 445.163L388.639 448L377.657 453.92H358.592L349.954 450.96L341.625 456.079L339.774 461.691L328.236 460.396L317.501 454.969V448L310.467 437.269V420.617L312.873 407.973L308.308 396.44V382.749L311.269 373.621L311.022 359.374L305.408 351.048V344.079L309.665 336.555L308.061 322.061L305.408 306.458L307.814 293.815L311.269 278.52L313.367 273.956L314.477 271.55L319.598 263.471L327.928 260.264L342.982 244.661L347.856 232.881L359.085 229.674L369.327 222.088H374.448L381.297 228.009L388.948 235.718L383.271 242.132L391.786 251.383L404.249 263.903L413.133 258.229L417.144 275.991L413.504 281.233L416.774 286.846L409.925 294.493L413.936 313.057L428.867 315.031L424.424 327.55L426.645 335.198L418.748 349.321L430.841 367.022Z" stroke="#484848" stroke-width="2" stroke-miterlimit="10" stroke-linecap="round" stroke-linejoin="round"/>
<path d="M317.5 448V454.969L308.616 457.929L301.582 453.674L298.682 448H292.204L287.392 455.524L284.121 452.995L282.271 442.388L278.26 445.841V448.802L270.178 448V442.388H263.699V433.753L253.211 424.132H247.596L241.981 427.832L236.305 425.427L233.899 417.101L227.421 407.973L219.153 404.52L214.032 398.352L217.796 392.432L210.392 391.075L208.664 384.352L210.392 376.828L202.186 353.207L196.571 349.198L197.867 341.921L207.862 338.405L216.438 334.643L221.004 324.714L225.57 322.308L226.372 315.586L230.135 309.665L240.624 306.705L248.707 297.084L244.141 289.806L250.804 282.529L251.606 273.154L256.234 270.194L267.463 272.352L280.666 268.343L289.798 257.057L305.407 261.066L310.22 265.63L313.367 273.956L311.269 278.52L307.814 293.815L305.407 306.458L308.061 322.062L309.665 336.555L305.407 344.079V351.048L311.022 359.374L311.269 373.621L308.307 382.749V396.44L312.873 407.973L310.467 420.617V437.269L317.5 448Z" stroke="#484848" stroke-width="2" stroke-miterlimit="10" stroke-linecap="round" stroke-linejoin="round"/>
</svg>
